<?xml version="1.0" standalone="no"?>
<!DOCTYPE svg PUBLIC "-//W3C//DTD SVG 20010904//EN"
 "http://www.w3.org/TR/2001/REC-SVG-20010904/DTD/svg10.dtd">
<svg version="1.0" xmlns="http://www.w3.org/2000/svg"
 width="500.000000pt" height="500.000000pt" viewBox="0 0 500.000000 500.000000"
 preserveAspectRatio="xMidYMid meet">

<g transform="translate(0.000000,500.000000) scale(0.100000,-0.100000)"
fill="#000000" stroke="none">
<path d="M0 2500 l0 -2500 2500 0 2500 0 0 2500 0 2500 -2500 0 -2500 0 0
-2500z m1027 985 c21 -9 46 -23 56 -33 55 -49 83 -168 97 -403 14 -240 27
-355 50 -438 11 -39 20 -97 20 -130 l0 -60 53 -15 c28 -8 88 -21 133 -30 185
-34 379 -117 555 -237 35 -25 104 -64 153 -89 88 -45 89 -45 195 -45 140 0
286 20 336 47 39 21 51 21 350 20 227 -1 353 -6 470 -20 88 -10 180 -16 205
-14 39 3 49 9 77 46 l31 43 116 7 c98 6 122 4 151 -10 40 -19 75 -58 75 -84 0
-36 -120 -64 -241 -58 l-91 6 74 -49 c40 -26 123 -91 183 -144 183 -160 307
-235 390 -235 65 0 92 -26 135 -129 33 -82 32 -116 -3 -108 -33 8 -169 66
-185 79 -7 6 -42 50 -78 96 -43 58 -84 98 -126 127 -35 24 -92 69 -128 100
-137 121 -306 235 -348 235 -10 0 -39 7 -62 15 -61 21 -300 43 -557 50 -211 5
-273 2 -273 -14 0 -15 88 -50 156 -61 39 -6 82 -19 97 -29 33 -22 86 -90 87
-112 0 -35 -22 -38 -120 -15 -115 27 -121 30 -190 101 -68 70 -146 110 -195
101 -95 -18 -305 -46 -346 -46 -85 0 -240 63 -369 150 -199 134 -322 186 -585
246 -103 23 -141 29 -212 33 -6 1 -25 13 -42 27 -28 23 -31 32 -31 82 0 72
-42 258 -62 279 -15 14 -23 13 -95 -11 -43 -14 -132 -40 -198 -58 -66 -18
-129 -40 -141 -48 -12 -8 -40 -49 -63 -90 -46 -83 -90 -130 -122 -130 -51 0
-109 53 -109 99 0 25 302 650 357 739 64 103 159 185 251 218 49 17 75 17 119
-1z m578 -641 c34 -16 65 -65 65 -103 0 -35 -26 -88 -52 -105 -12 -8 -47 -18
-75 -22 l-53 -7 0 -63 0 -64 -30 0 -30 0 0 190 0 190 71 0 c44 0 84 -6 104
-16z m434 0 c75 -30 95 -134 37 -192 l-25 -25 33 -51 c61 -96 61 -96 24 -96
-30 0 -37 6 -73 65 -36 59 -43 65 -72 65 l-33 0 0 -65 0 -65 -30 0 -30 0 0
190 0 190 65 0 c35 0 82 -7 104 -16z m361 -174 l0 -190 -30 0 -30 0 0 190 0
190 30 0 30 0 0 -190z m479 179 c33 -12 37 -20 21 -49 -9 -17 -13 -18 -45 -4
-46 19 -74 18 -113 -6 -93 -57 -94 -200 -2 -247 32 -16 91 -16 125 -1 22 10
28 9 36 -3 15 -24 10 -39 -18 -50 -108 -42 -220 4 -259 107 -34 89 4 201 83
243 43 23 122 27 172 10z m301 -179 l0 -190 -30 0 -30 0 0 190 0 190 30 0 30
0 0 -190z m458 163 c-3 -26 -7 -28 -50 -31 l-48 -3 0 -160 0 -159 -30 0 -30 0
0 159 0 160 -47 3 c-44 3 -48 5 -51 31 l-3 27 131 0 131 0 -3 -27z m286 -72
l49 -93 51 96 c48 91 52 96 83 96 18 0 33 -2 33 -3 0 -2 -31 -60 -70 -128 -66
-117 -70 -128 -70 -186 l0 -63 -30 0 -30 0 0 66 c0 63 -3 72 -65 182 -36 63
-65 119 -65 124 0 5 15 8 32 6 30 -3 36 -11 82 -97z m-140 -1305 c41 -101 39
-96 27 -96 -5 0 -14 14 -21 30 -11 26 -17 30 -52 30 -34 0 -40 -4 -49 -30 -6
-16 -15 -30 -21 -30 -11 0 -12 -2 35 117 17 45 35 79 39 75 3 -4 22 -47 42
-96z m-1144 84 c0 -5 -11 -10 -25 -10 -25 0 -25 -1 -25 -85 0 -50 -4 -85 -10
-85 -6 0 -10 35 -10 85 l0 85 -30 0 c-16 0 -30 5 -30 10 0 6 28 10 65 10 37 0
65 -4 65 -10z m130 -85 c0 -57 -4 -95 -10 -95 -6 0 -10 38 -10 95 0 57 4 95
10 95 6 0 10 -38 10 -95z m240 85 c0 -5 -22 -10 -50 -10 -49 0 -50 -1 -50 -30
0 -28 2 -30 39 -30 22 0 43 -4 46 -10 4 -6 -12 -10 -39 -10 -46 0 -46 0 -46
-35 l0 -35 50 0 c28 0 50 -4 50 -10 0 -6 -27 -10 -60 -10 l-60 0 0 95 0 95 60
0 c33 0 60 -4 60 -10z m191 -64 l64 -74 3 74 c4 108 22 91 22 -21 0 -52 -3
-95 -7 -95 -5 0 -37 34 -73 76 l-65 75 -3 -75 c-4 -110 -22 -94 -22 19 0 52 4
95 9 95 5 0 37 -33 72 -74z m328 48 c26 -21 31 -33 31 -69 0 -62 -36 -95 -101
-95 l-49 0 0 95 0 95 44 0 c33 0 52 -7 75 -26z"/>
<path d="M945 3296 c-16 -7 -40 -24 -52 -37 -53 -59 -234 -391 -220 -405 3 -3
82 7 176 23 168 28 171 28 171 53 -1 58 -19 311 -25 344 -8 40 -8 40 -50 22z"/>
<path d="M3895 2081 c-43 -4 -60 -10 -60 -21 0 -19 65 -32 141 -28 69 4 102
22 83 44 -12 15 -53 16 -164 5z"/>
<path d="M2950 1901 c0 -16 25 -29 78 -40 72 -15 78 -14 57 9 -27 30 -135 55
-135 31z"/>
<path d="M4422 1484 c4 -23 47 -53 82 -56 37 -4 42 12 16 45 -17 21 -30 27
-61 27 -32 0 -40 -3 -37 -16z"/>
<path d="M1490 2735 l0 -65 40 0 c48 0 80 27 80 68 0 40 -28 62 -78 62 l-42 0
0 -65z"/>
<path d="M1930 2735 l0 -65 40 0 c48 0 80 27 80 68 0 40 -28 62 -78 62 l-42 0
0 -65z"/>
<path d="M3727 1492 c-2 -9 -8 -25 -12 -34 -6 -15 -2 -18 23 -18 30 0 31 1 20
30 -12 37 -24 45 -31 22z"/>
<path d="M3430 1455 l0 -75 35 0 c22 0 43 8 55 20 12 12 20 33 20 55 0 22 -8
43 -20 55 -12 12 -33 20 -55 20 l-35 0 0 -75z"/>
</g>
</svg>
